<?xml version="1.0" standalone="no"?>
<!DOCTYPE svg PUBLIC "-//W3C//DTD SVG 20010904//EN"
 "http://www.w3.org/TR/2001/REC-SVG-20010904/DTD/svg10.dtd">
<svg version="1.0" xmlns="http://www.w3.org/2000/svg"
 width="512.000000pt" height="512.000000pt" viewBox="0 0 512.000000 512.000000"
 preserveAspectRatio="xMidYMid meet">

<g transform="translate(0.000000,512.000000) scale(0.100000,-0.100000)"
fill="#000000" stroke="none">
<path d="M561 3720 c-51 -12 -112 -60 -138 -109 l-23 -44 0 -701 0 -701 -30
-17 -30 -17 0 -143 c0 -79 5 -150 10 -158 8 -12 50 -16 241 -20 l232 -5 22
-71 c24 -79 52 -130 103 -186 l34 -38 -309 0 c-341 0 -353 -2 -353 -60 0 -65
-179 -60 2230 -60 2405 0 2230 -5 2230 59 0 58 -13 61 -269 61 l-233 0 45 50
c52 58 86 122 102 195 l11 50 132 5 c144 6 164 13 210 80 22 32 22 39 22 312
0 306 -4 329 -59 366 -14 10 -109 44 -211 76 -102 33 -197 65 -211 72 -22 11
-38 43 -89 171 -35 87 -73 178 -86 203 -30 62 -94 124 -162 157 l-57 28 -342
3 -342 3 -3 154 c-3 153 -3 154 -33 197 -17 24 -51 54 -75 68 l-45 25 -1245 2
c-685 0 -1260 -2 -1279 -7z m2531 -139 l33 -29 3 -696 2 -696 -738 0 -738 0
-30 31 c-89 96 -217 144 -362 137 -79 -4 -100 -9 -164 -41 -41 -20 -96 -57
-123 -82 l-49 -45 -208 0 -208 0 2 696 3 696 33 29 32 29 1240 0 1240 0 32
-29z m836 -437 c46 -19 88 -58 112 -104 10 -20 48 -109 84 -199 36 -91 76
-175 88 -189 34 -36 76 -54 263 -111 94 -29 180 -59 193 -67 22 -14 22 -16 22
-263 0 -312 9 -293 -144 -289 l-109 3 -13 52 c-30 117 -101 215 -206 283 -81
53 -165 74 -275 68 -77 -3 -100 -9 -167 -41 -131 -62 -226 -179 -258 -316
l-11 -51 -134 0 -133 0 0 620 0 620 325 0 c272 0 332 -3 363 -16z m-2481 -964
c221 -109 266 -401 87 -570 -78 -74 -129 -94 -239 -95 -77 0 -98 4 -146 26
-79 37 -133 90 -171 167 -148 301 169 620 469 472z m2668 6 c232 -106 282
-405 96 -579 -75 -70 -127 -90 -236 -91 -77 -1 -98 3 -146 25 -77 36 -130 87
-169 161 -45 84 -53 193 -21 280 74 195 292 289 476 204z m-3274 -206 l-16
-60 -187 0 -188 0 0 60 0 60 203 0 204 0 -16 -60z m2289 0 l0 -60 -687 2 -688
3 -6 35 c-3 19 -9 45 -13 58 l-7 22 700 0 701 0 0 -60z m395 -247 c25 -79 53
-129 103 -185 l34 -38 -1032 0 -1032 0 40 42 c46 47 97 143 108 203 3 22 9 43
11 48 2 4 396 6 875 5 l870 -3 23 -72z"/>
<path d="M2531 3433 c-18 -16 -21 -31 -23 -113 l-3 -95 -663 -5 c-575 -4 -664
-7 -672 -20 -13 -20 -13 -470 0 -490 8 -13 97 -16 672 -20 l663 -5 3 -98 c3
-91 4 -98 28 -113 17 -12 31 -14 44 -8 24 12 478 442 491 467 6 10 8 26 4 36
-3 10 -83 92 -178 183 -270 257 -315 298 -330 298 -8 0 -24 -8 -36 -17z m292
-370 c59 -58 107 -107 106 -111 0 -4 -69 -71 -152 -150 l-152 -143 -3 54 c-5
94 52 86 -693 89 l-654 3 0 150 0 150 654 3 c748 3 691 -5 691 90 l0 55 48
-43 c26 -24 95 -90 155 -147z"/>
<path d="M642 3204 c-14 -10 -22 -26 -22 -44 0 -53 24 -60 217 -60 160 0 175
2 193 20 11 11 20 29 20 40 0 11 -9 29 -20 40 -18 18 -33 20 -193 20 -140 0
-177 -3 -195 -16z"/>
<path d="M660 3013 c-41 -15 -53 -69 -22 -96 16 -15 45 -17 199 -17 162 0 182
2 196 18 21 23 22 52 3 78 -13 17 -29 19 -188 21 -95 1 -180 0 -188 -4z"/>
<path d="M637 2792 c-19 -21 -21 -45 -7 -73 10 -18 23 -19 200 -19 204 0 220
4 220 54 0 50 -22 56 -217 56 -162 0 -182 -2 -196 -18z"/>
<path d="M3406 2988 c-13 -18 -16 -55 -16 -191 0 -165 0 -168 25 -192 l24 -25
246 0 c261 0 301 6 324 48 18 35 13 73 -26 172 -44 111 -101 178 -169 198 -26
7 -108 12 -217 12 -170 0 -176 -1 -191 -22z m400 -115 c22 -16 41 -45 62 -98
l31 -75 -195 0 -194 0 0 101 0 101 133 -4 c117 -3 135 -5 163 -25z"/>
<path d="M3411 2404 c-27 -34 -26 -40 4 -69 22 -23 32 -25 115 -25 77 0 93 3
110 20 11 11 20 29 20 40 0 11 -9 29 -20 40 -17 17 -33 20 -114 20 -90 0 -96
-1 -115 -26z"/>
<path d="M1210 2054 c-136 -59 -168 -241 -59 -338 51 -46 76 -56 148 -56 103
0 185 74 198 178 7 61 -9 112 -50 159 -59 67 -159 91 -237 57z m148 -131 c35
-38 30 -94 -10 -128 -26 -22 -39 -26 -67 -21 -91 14 -109 136 -26 172 38 16
74 9 103 -23z"/>
<path d="M3890 2054 c-140 -61 -168 -242 -54 -343 51 -45 89 -56 165 -49 93 9
165 84 176 182 17 150 -148 270 -287 210z m148 -131 c35 -38 30 -94 -10 -128
-26 -22 -39 -26 -67 -21 -91 14 -109 136 -26 172 38 16 74 9 103 -23z"/>
</g>
</svg>
