<?xml version="1.0" standalone="no"?>
<!DOCTYPE svg PUBLIC "-//W3C//DTD SVG 20010904//EN"
 "http://www.w3.org/TR/2001/REC-SVG-20010904/DTD/svg10.dtd">
<svg version="1.0" xmlns="http://www.w3.org/2000/svg"
 width="626.000000pt" height="626.000000pt" viewBox="0 0 626.000000 626.000000"
 preserveAspectRatio="xMidYMid meet">

<g transform="translate(0.000000,626.000000) scale(0.100000,-0.100000)"
fill="#000000" stroke="none">
<path d="M1805 5219 c-245 -36 -456 -140 -626 -309 -129 -127 -218 -274 -272
-446 -47 -149 -48 -176 -45 -1429 l3 -1180 28 -90 c118 -382 390 -651 765
-758 l77 -22 1342 -3 c1286 -2 1347 -2 1435 17 208 42 384 132 533 273 150
142 248 304 303 506 l27 97 0 1215 0 1215 -28 100 c-15 55 -52 150 -82 210
-146 297 -386 490 -724 583 l-96 27 -1290 1 c-709 1 -1317 -2 -1350 -7z m2660
-352 c270 -78 490 -296 555 -552 18 -72 19 -124 20 -1218 2 -1237 3 -1199 -52
-1330 -88 -209 -285 -374 -511 -427 -84 -20 -110 -20 -1389 -18 l-1303 3 -88
31 c-197 71 -342 196 -427 369 -74 150 -70 68 -70 1361 0 1128 1 1163 20 1239
75 293 319 509 625 554 33 5 623 8 1310 7 1157 -1 1254 -3 1310 -19z"/>
<path d="M4195 4567 c-105 -35 -177 -96 -219 -186 -30 -65 -29 -205 2 -273 28
-63 95 -134 157 -166 44 -23 62 -27 145 -27 88 0 101 3 163 33 196 97 237 359
82 530 -75 83 -225 123 -330 89z"/>
<path d="M2937 4064 c-317 -70 -571 -273 -702 -558 -59 -127 -79 -231 -79
-396 1 -123 5 -159 26 -241 93 -346 343 -602 684 -701 69 -20 100 -23 254 -22
162 0 182 2 265 28 265 81 460 233 591 463 270 472 76 1095 -418 1344 -137 69
-231 91 -403 95 -109 3 -169 -1 -218 -12z m338 -339 c203 -51 391 -227 456
-426 31 -95 33 -261 5 -354 -51 -170 -174 -319 -326 -393 -123 -61 -193 -76
-320 -69 -175 8 -298 66 -425 199 -84 87 -127 164 -156 276 -83 326 137 686
469 767 77 18 224 18 297 0z"/>
</g>
</svg>
