<?xml version="1.0" standalone="no"?>
<!DOCTYPE svg PUBLIC "-//W3C//DTD SVG 20010904//EN"
 "http://www.w3.org/TR/2001/REC-SVG-20010904/DTD/svg10.dtd">
<svg version="1.0" xmlns="http://www.w3.org/2000/svg"
 width="1200.000000pt" height="1200.000000pt" viewBox="0 0 1200.000000 1200.000000"
 preserveAspectRatio="xMidYMid meet">

<g transform="translate(0.000000,1200.000000) scale(0.100000,-0.100000)"
fill="#000000" stroke="none">
<path d="M10527 10544 c-42 -8 -105 -23 -139 -35 -94 -31 -561 -230 -3768
-1604 -839 -359 -2398 -1027 -3465 -1484 -1067 -457 -1962 -841 -1990 -854
-80 -35 -215 -130 -279 -195 -117 -120 -160 -216 -160 -367 -1 -118 22 -204
81 -304 68 -115 212 -240 361 -315 69 -35 -31 0 1777 -618 242 -83 444 -154
448 -158 4 -3 59 -179 123 -391 567 -1892 683 -2270 734 -2394 51 -125 105
-217 169 -287 147 -160 393 -179 591 -45 30 20 345 307 699 636 l644 598 456
-355 c251 -196 506 -394 566 -442 61 -47 142 -111 181 -141 38 -30 240 -187
447 -349 485 -379 499 -389 622 -428 133 -42 229 -56 345 -49 232 14 452 141
595 341 92 130 96 145 206 716 55 289 134 701 175 915 41 215 106 554 145 755
38 201 96 502 129 670 32 168 68 352 79 410 11 58 56 292 100 520 44 228 112
579 150 780 162 842 282 1469 493 2555 l223 1150 -1 160 c0 146 -2 167 -27
240 -97 290 -368 431 -710 369z m-1214 -1716 c-16 -18 -146 -163 -289 -323
-142 -159 -335 -375 -429 -480 -94 -104 -230 -256 -301 -336 -71 -80 -356
-399 -634 -709 -278 -310 -584 -652 -680 -760 -278 -312 -742 -830 -1025
-1145 -143 -159 -331 -369 -417 -466 -86 -97 -179 -200 -206 -230 -50 -54 -50
-55 -408 -1011 -198 -526 -362 -954 -366 -950 -3 4 -164 536 -358 1182 -194
646 -354 1180 -357 1186 -5 14 -223 -148 2142 1599 446 329 860 635 920 680
61 45 207 153 325 240 118 87 274 202 345 255 72 53 339 251 595 440 256 189
497 367 535 395 298 222 629 465 634 465 3 0 -9 -15 -26 -32z"/>
</g>
</svg>
