<?xml version="1.0" standalone="no"?>
<!DOCTYPE svg PUBLIC "-//W3C//DTD SVG 20010904//EN"
 "http://www.w3.org/TR/2001/REC-SVG-20010904/DTD/svg10.dtd">
<svg version="1.0" xmlns="http://www.w3.org/2000/svg"
 width="1024.000000pt" height="1024.000000pt" viewBox="0 0 1024.000000 1024.000000"
 preserveAspectRatio="xMidYMid meet">

<g transform="translate(0.000000,1024.000000) scale(0.100000,-0.100000)"
fill="#000000" stroke="none">
<path d="M1081 9910 c-46 -11 -100 -67 -111 -116 -5 -21 -10 -204 -10 -407 l0
-367 -76 -88 c-109 -126 -245 -334 -324 -496 -110 -225 -182 -469 -220 -741
-13 -92 -26 -1214 -15 -1301 5 -46 14 -64 43 -96 47 -50 83 -58 206 -47 104
10 229 45 318 90 32 16 59 29 62 29 2 0 6 -197 8 -437 4 -424 5 -440 27 -508
13 -38 37 -97 54 -130 42 -79 173 -210 252 -252 70 -36 184 -73 229 -73 17 0
41 -3 54 -6 l22 -6 0 -1432 c0 -852 4 -1461 10 -1506 27 -211 199 -383 410
-410 46 -6 889 -10 2156 -10 l2080 0 13 -52 c8 -28 34 -91 58 -140 49 -97 127
-186 239 -269 33 -25 75 -68 92 -95 54 -81 62 -124 62 -353 0 -113 5 -224 10
-245 18 -80 105 -134 187 -116 48 11 102 66 113 116 13 54 12 361 -1 464 -26
211 -118 360 -318 515 -47 36 -74 67 -99 113 l-34 62 642 0 642 0 -5 -32 c-12
-66 -19 -258 -13 -303 5 -33 18 -58 43 -86 64 -71 156 -73 221 -6 44 45 52 81
52 223 0 206 43 386 137 567 140 271 394 494 679 597 73 26 122 72 135 126 4
22 9 131 9 244 0 152 4 221 15 265 36 137 123 271 228 351 62 47 158 97 210
110 l27 6 0 -501 c0 -398 -3 -523 -16 -612 -42 -303 -154 -599 -322 -850 -62
-92 -102 -142 -245 -304 -21 -24 -43 -60 -48 -82 -11 -50 -11 -817 1 -867 18
-80 105 -134 187 -116 48 11 102 66 113 116 5 21 10 204 10 407 l0 367 76 88
c216 248 400 601 484 926 66 255 72 332 77 973 3 320 2 608 -2 639 -5 46 -14
64 -43 96 -47 50 -88 59 -206 47 -116 -12 -190 -32 -295 -80 -46 -22 -85 -39
-87 -39 -1 0 -4 197 -6 438 -4 423 -5 439 -27 507 -38 116 -80 184 -166 271
-116 116 -211 160 -407 189 l-38 6 0 1432 c0 852 -4 1462 -10 1507 -27 208
-197 380 -405 410 -44 6 -842 10 -2156 10 l-2086 0 -17 62 c-42 151 -141 286
-292 399 -33 25 -75 68 -92 95 -54 81 -62 124 -62 353 0 113 -5 224 -10 245
-5 23 -23 54 -43 73 -64 65 -155 62 -219 -5 -30 -32 -38 -50 -43 -98 -12 -94
2 -450 20 -524 35 -142 128 -284 245 -375 91 -70 136 -118 165 -176 l25 -49
-641 0 -641 0 5 33 c12 65 19 257 13 302 -20 130 -174 185 -265 94 -41 -41
-51 -83 -51 -224 0 -326 -116 -615 -340 -849 -138 -144 -302 -253 -476 -316
-73 -26 -122 -72 -135 -126 -4 -22 -9 -131 -9 -244 0 -231 -8 -280 -65 -395
-40 -81 -99 -156 -170 -215 -51 -42 -168 -104 -217 -116 l-28 -6 0 501 c0 547
5 621 59 835 85 332 240 618 480 880 50 56 85 103 91 125 12 45 13 821 1 875
-5 21 -24 54 -43 73 -29 30 -43 37 -98 48 -8 1 -30 -1 -49 -5z m7158 -1611
c66 -37 76 -60 79 -186 l4 -113 -3087 0 c-1698 0 -3085 3 -3083 8 2 4 30 61
64 127 33 66 66 135 72 153 l11 32 2952 0 2951 0 37 -21z m-3439 -859 l0 -240
-77 0 c-107 -1 -150 -12 -190 -53 -45 -45 -52 -81 -53 -268 l0 -156 -222 -6
c-151 -4 -247 -11 -298 -22 -361 -80 -654 -373 -735 -735 -22 -96 -34 -761
-16 -892 30 -221 192 -387 407 -418 86 -12 125 -2 171 42 67 65 65 157 -6 221
-26 24 -52 37 -82 41 -89 14 -101 19 -134 52 -19 18 -37 48 -40 66 -3 18 -5
213 -3 433 l3 400 26 67 c74 191 207 324 397 396 64 25 78 26 300 30 l232 4 0
-159 c0 -87 5 -176 10 -197 11 -51 65 -105 116 -116 51 -12 1297 -12 1348 0
51 11 105 65 116 116 5 21 10 110 10 197 l0 159 233 -4 c221 -4 235 -5 299
-30 189 -72 323 -206 397 -396 l26 -67 3 -412 c3 -369 1 -417 -14 -448 -23
-50 -61 -73 -144 -89 -59 -11 -78 -19 -107 -48 -62 -62 -62 -153 0 -215 42
-42 83 -52 172 -42 212 26 379 200 406 424 18 143 6 790 -16 885 -69 306 -291
569 -577 685 -133 54 -208 66 -455 72 l-223 6 0 156 c-1 187 -8 223 -53 268
-40 41 -83 52 -189 53 l-78 0 0 240 0 240 1280 0 1280 0 0 -2586 0 -2586 -56
-61 c-122 -135 -221 -287 -289 -442 l-34 -80 -136 -3 -136 -3 25 34 c37 48
101 190 122 272 17 63 19 112 19 500 -1 411 -2 433 -23 510 -78 284 -295 501
-577 577 -74 20 -111 22 -457 26 l-378 4 0 796 c0 441 -5 814 -10 836 -11 51
-65 105 -116 116 -51 12 -1937 12 -1988 0 -51 -11 -105 -65 -116 -116 -5 -22
-10 -395 -10 -836 l0 -798 -640 0 -640 0 0 803 c0 496 -4 815 -10 836 -13 46
-65 99 -110 111 -20 6 -204 10 -437 10 l-403 0 0 1040 0 1040 1440 0 1440 0 0
-240z m640 0 l0 -240 -160 0 -160 0 0 240 0 240 160 0 160 0 0 -240z m-3840
-1056 l0 -1107 -49 6 c-103 12 -198 85 -245 187 l-26 55 0 577 0 577 31 52
c83 142 117 281 126 519 l7 165 70 37 c39 20 74 37 79 37 4 1 7 -497 7 -1105z
m4160 176 l0 -320 -480 0 -480 0 0 320 0 320 480 0 480 0 0 -320z m-3200
-2000 l0 -720 -320 0 -320 0 0 720 0 720 320 0 320 0 0 -720z m2242 458 c3
-250 4 -265 25 -298 12 -19 37 -44 55 -55 31 -19 54 -20 363 -23 182 -2 349 0
373 3 55 8 117 62 132 113 5 21 10 146 10 280 l0 242 160 0 160 0 0 -720 0
-720 -800 0 -800 0 0 720 0 720 159 0 160 0 3 -262z m638 102 l0 -160 -160 0
-160 0 0 160 0 160 160 0 160 0 0 -160z m3347 -194 c63 -32 116 -88 147 -156
l26 -55 0 -577 0 -578 -29 -47 c-42 -68 -87 -187 -106 -279 -9 -43 -19 -153
-22 -244 l-7 -165 -69 -35 c-38 -19 -74 -36 -78 -38 -5 -2 -9 484 -9 1104 l0
1107 49 -6 c27 -3 71 -17 98 -31z m-1604 -1426 c135 -42 255 -153 309 -287 23
-58 23 -60 23 -493 0 -433 0 -435 -23 -493 -54 -133 -177 -247 -310 -287 -67
-20 -79 -20 -2617 -18 -2532 3 -2550 3 -2577 23 -53 40 -68 83 -68 194 l0 101
2398 0 c1545 0 2422 4 2467 10 320 46 499 384 360 678 -66 140 -203 239 -360
262 -45 6 -922 10 -2467 10 l-2398 0 0 160 0 160 2599 0 c2580 0 2599 0 2664
-20z m-4437 -635 c-3 -8 -11 -44 -17 -80 -10 -61 -2 -158 17 -210 5 -13 -43
-15 -410 -15 l-416 0 0 160 0 160 416 0 c367 0 415 -2 410 -15z m530 -1 c49
-23 77 -68 82 -129 8 -98 -48 -165 -144 -173 -62 -5 -115 17 -147 62 -31 44
-31 148 0 192 43 60 137 82 209 48z m1230 1 c-3 -8 -11 -44 -17 -80 -10 -61
-2 -158 17 -210 5 -13 -45 -15 -426 -15 -381 0 -431 2 -426 15 19 52 27 149
17 210 -6 36 -14 72 -17 80 -5 13 45 15 426 15 381 0 431 -2 426 -15z m530 -1
c49 -23 77 -68 82 -129 8 -98 -48 -165 -144 -173 -62 -5 -115 17 -147 62 -31
44 -31 148 0 192 43 60 137 82 209 48z m1230 1 c-3 -8 -11 -44 -17 -80 -10
-61 -2 -158 17 -210 5 -13 -45 -15 -426 -15 -381 0 -431 2 -426 15 19 52 27
149 17 210 -6 36 -14 72 -17 80 -5 13 45 15 426 15 381 0 431 -2 426 -15z
m530 -1 c49 -23 77 -68 82 -129 8 -98 -48 -165 -144 -173 -62 -5 -115 17 -147
62 -31 44 -31 148 0 192 43 60 137 82 209 48z"/>
</g>
</svg>
