<?xml version="1.0" standalone="no"?>
<!DOCTYPE svg PUBLIC "-//W3C//DTD SVG 20010904//EN"
 "http://www.w3.org/TR/2001/REC-SVG-20010904/DTD/svg10.dtd">
<svg version="1.0" xmlns="http://www.w3.org/2000/svg"
 width="512.000000pt" height="512.000000pt" viewBox="0 0 512.000000 512.000000"
 preserveAspectRatio="xMidYMid meet">

<g transform="translate(0.000000,512.000000) scale(0.100000,-0.100000)"
fill="#000000" stroke="none">
<path d="M467 4869 c-111 -26 -210 -108 -264 -217 l-38 -76 0 -2016 0 -2016
37 -76 c45 -91 103 -147 196 -191 l67 -32 2223 -3 2223 -2 24 24 c14 14 25 35
25 47 0 12 -13 171 -30 353 -50 557 -210 2380 -210 2394 0 7 -11 24 -25 37
-24 25 -24 25 -238 25 l-215 0 -4 178 c-4 158 -7 184 -30 243 -67 178 -187
294 -368 355 -76 26 -244 26 -320 0 -133 -45 -255 -138 -316 -241 -64 -111
-77 -165 -82 -357 l-4 -178 -119 0 -118 0 -3 728 -3 728 -37 76 c-45 91 -103
147 -196 191 l-67 32 -1035 2 c-582 1 -1051 -3 -1073 -8z m2087 -161 c45 -13
146 -105 146 -132 0 -14 -116 -16 -1180 -16 -1064 0 -1180 2 -1180 16 0 24
101 119 140 131 53 16 2018 17 2074 1z m166 -2148 l0 -1840 -1200 0 -1200 0 0
1840 0 1840 1200 0 1200 0 0 -1840z m1124 1162 c91 -42 149 -100 194 -190 l37
-76 4 -168 3 -168 -402 0 -402 0 4 168 c3 163 4 168 35 234 40 85 97 147 172
186 78 42 122 52 213 48 61 -3 92 -11 142 -34z m-724 -937 c0 -173 0 -176 25
-200 15 -16 36 -25 55 -25 19 0 40 9 55 25 25 24 25 27 25 200 l0 175 400 0
400 0 0 -175 c0 -173 0 -176 25 -200 15 -16 36 -25 55 -25 19 0 40 9 55 25 25
24 25 27 25 200 l0 175 163 0 163 0 27 -302 c61 -676 197 -2229 197 -2243 0
-13 -124 -15 -993 -15 l-993 0 35 72 36 72 3 1208 2 1208 120 0 120 0 0 -175z
m-420 -2241 c0 -27 -101 -119 -146 -132 -60 -17 -2008 -17 -2068 0 -45 13
-146 105 -146 132 0 14 116 16 1180 16 1064 0 1180 -2 1180 -16z"/>
<path d="M1255 3751 c-113 -25 -209 -77 -289 -157 -91 -91 -147 -207 -162
-333 l-7 -61 -134 0 c-129 0 -135 -1 -158 -25 -14 -13 -25 -32 -25 -42 0 -10
38 -207 84 -438 73 -364 87 -422 106 -437 21 -17 63 -18 692 -18 l669 0 24
-25 c33 -32 33 -78 0 -110 l-24 -25 -672 0 c-490 0 -682 -3 -711 -12 -22 -6
-62 -31 -88 -55 -72 -65 -96 -151 -68 -247 16 -55 99 -138 154 -154 31 -9 232
-12 793 -12 l752 0 24 25 c16 15 25 36 25 55 0 19 -9 40 -25 55 -20 21 -34 25
-84 25 l-60 0 6 54 c3 30 1 67 -5 84 -9 28 -8 30 29 46 76 34 139 131 139 216
0 77 -57 173 -122 209 l-25 13 83 406 c45 224 91 443 101 487 l19 80 113 5
c103 5 114 7 132 29 26 32 24 77 -6 106 -23 24 -28 25 -173 25 -129 0 -153 -3
-172 -18 -17 -14 -29 -50 -54 -157 l-32 -140 -91 -3 -90 -3 -7 62 c-14 124
-71 241 -160 332 -101 102 -224 156 -371 162 -49 2 -108 0 -130 -4z m269 -189
c91 -42 149 -100 194 -190 35 -72 37 -81 37 -171 0 -87 -3 -102 -32 -163 -40
-85 -97 -147 -170 -185 -121 -63 -243 -68 -359 -14 -89 41 -147 99 -192 189
-35 72 -37 81 -37 171 0 87 3 102 32 163 40 85 97 147 172 186 78 42 122 52
213 48 61 -3 92 -11 142 -34z m-694 -535 c0 -8 18 -50 40 -95 22 -44 40 -92
40 -106 l0 -26 -103 0 -103 0 -18 93 c-10 50 -20 104 -23 120 l-5 27 86 0 c65
0 86 -3 86 -13z m1227 -14 c-3 -16 -13 -70 -23 -120 l-18 -93 -103 0 -103 0 0
26 c0 14 18 62 40 106 22 45 40 87 40 95 0 10 21 13 86 13 l87 0 -6 -27z
m-1124 -430 c4 -32 9 -86 13 -120 l7 -63 -85 0 -84 0 -18 93 c-10 50 -20 104
-23 120 l-5 27 94 0 95 0 6 -57z m347 -63 l0 -120 -84 0 -83 0 -7 63 c-4 34
-9 88 -13 120 l-6 57 97 0 96 0 0 -120z m347 73 c-4 -27 -9 -81 -13 -120 l-7
-73 -83 0 -84 0 0 120 0 120 96 0 97 0 -6 -47z m350 20 c-3 -16 -13 -70 -23
-120 l-18 -93 -84 0 -85 0 7 63 c4 34 9 88 13 120 l6 57 95 0 95 0 -6 -27z
m-1202 -718 c16 -15 25 -36 25 -55 0 -19 -9 -40 -25 -55 -15 -16 -36 -25 -55
-25 -19 0 -40 9 -55 25 -16 15 -25 36 -25 55 0 19 9 40 25 55 15 16 36 25 55
25 19 0 40 -9 55 -25z m830 -55 l0 -80 -325 0 -325 0 0 80 0 80 325 0 325 0 0
-80z m290 55 c50 -49 15 -135 -55 -135 -19 0 -40 9 -55 25 -16 15 -25 36 -25
55 0 19 9 40 25 55 15 16 36 25 55 25 19 0 40 -9 55 -25z"/>
<path d="M1384 3259 l-103 -101 -27 21 c-56 44 -134 9 -134 -60 0 -26 12 -44
63 -96 97 -96 98 -96 274 80 125 125 143 147 143 175 0 44 -38 82 -81 82 -27
0 -48 -16 -135 -101z"/>
<path d="M2425 1735 c-50 -49 -15 -135 55 -135 19 0 40 9 55 25 16 15 25 36
25 55 0 19 -9 40 -25 55 -15 16 -36 25 -55 25 -19 0 -40 -9 -55 -25z"/>
<path d="M3145 2375 c-50 -49 -15 -135 55 -135 41 0 80 39 80 80 0 41 -39 80
-80 80 -19 0 -40 -9 -55 -25z"/>
<path d="M4105 2375 c-50 -49 -15 -135 55 -135 41 0 80 39 80 80 0 41 -39 80
-80 80 -19 0 -40 -9 -55 -25z"/>
</g>
</svg>
