<?xml version="1.0" standalone="no"?>
<!DOCTYPE svg PUBLIC "-//W3C//DTD SVG 20010904//EN"
 "http://www.w3.org/TR/2001/REC-SVG-20010904/DTD/svg10.dtd">
<svg version="1.0" xmlns="http://www.w3.org/2000/svg"
 width="728.000000pt" height="508.000000pt" viewBox="0 0 728.000000 508.000000"
 preserveAspectRatio="xMidYMid meet">

<g transform="translate(0.000000,508.000000) scale(0.100000,-0.100000)"
fill="#000000" stroke="none">
<path d="M3350 4969 c-892 -91 -1659 -712 -1938 -1570 -215 -659 -116 -1384
267 -1965 39 -59 71 -113 71 -118 0 -6 -68 -282 -151 -614 -83 -332 -149 -605
-147 -608 4 -3 119 40 498 189 152 60 370 144 445 173 33 12 117 45 187 72
l128 49 142 -47 c242 -81 475 -120 722 -120 146 0 341 17 456 40 338 66 683
225 970 449 471 367 785 927 855 1529 106 902 -325 1768 -1115 2239 -230 138
-529 243 -815 288 -123 19 -447 27 -575 14z m610 -123 c665 -114 1233 -525
1555 -1126 181 -338 265 -705 252 -1095 -9 -253 -42 -435 -121 -661 -212 -608
-722 -1118 -1327 -1329 -506 -176 -1035 -167 -1539 28 l-65 25 -110 -43 c-117
-45 -302 -117 -605 -235 -279 -109 -405 -158 -407 -156 -1 1 59 246 134 546
l136 545 -75 110 c-106 155 -161 256 -223 408 -104 257 -153 485 -162 757 -27
796 377 1538 1060 1949 209 126 460 222 709 272 225 45 543 47 788 5z"/>
<path d="M3385 4553 c-661 -85 -1202 -466 -1485 -1048 -315 -646 -230 -1427
217 -1982 25 -32 50 -64 56 -70 9 -12 -26 -145 -144 -552 -43 -148 -44 -155
-26 -148 6 3 89 35 182 71 94 36 179 70 190 75 31 14 249 100 296 116 36 13
45 13 64 1 30 -20 197 -89 275 -115 601 -194 1266 -68 1760 333 607 494 842
1316 589 2061 -178 523 -582 942 -1105 1145 -108 42 -294 88 -422 105 -96 13
-371 18 -447 8z m-315 -859 l85 -5 33 -96 c18 -52 64 -174 102 -271 39 -97 70
-191 70 -209 0 -36 -20 -62 -148 -194 -50 -52 -63 -71 -58 -87 28 -86 262
-364 426 -505 116 -100 266 -207 291 -207 8 0 48 32 89 71 138 130 155 142
198 136 21 -2 117 -36 213 -74 96 -39 210 -83 254 -98 44 -16 84 -31 88 -35 4
-4 12 -62 17 -130 l10 -123 -49 -61 c-104 -129 -201 -200 -300 -218 -81 -15
-266 3 -386 38 -300 87 -589 268 -861 539 -258 257 -414 512 -489 800 -30 116
-50 297 -40 372 13 108 96 228 223 324 58 43 68 48 106 44 22 -3 79 -7 126
-11z"/>
</g>
</svg>
