<?xml version="1.0" standalone="no"?>
<!DOCTYPE svg PUBLIC "-//W3C//DTD SVG 20010904//EN"
 "http://www.w3.org/TR/2001/REC-SVG-20010904/DTD/svg10.dtd">
<svg version="1.0" xmlns="http://www.w3.org/2000/svg"
 width="1024.000000pt" height="1024.000000pt" viewBox="0 0 1024.000000 1024.000000"
 preserveAspectRatio="xMidYMid meet">

<g transform="translate(0.000000,1024.000000) scale(0.100000,-0.100000)"
fill="#000000" stroke="none">
<path d="M5052 9918 c-22 -13 -177 -147 -344 -299 -167 -151 -320 -290 -341
-309 l-38 -33 -452 97 c-249 53 -470 96 -493 96 -48 0 -100 -31 -125 -75 -9
-17 -81 -228 -159 -471 l-142 -440 -432 -139 c-237 -76 -449 -147 -471 -159
-53 -28 -85 -78 -85 -131 0 -23 43 -241 95 -485 53 -244 95 -449 93 -456 -2
-7 -142 -166 -313 -354 -170 -187 -318 -358 -327 -378 -22 -46 -22 -73 -3
-118 11 -27 331 -390 623 -706 l26 -28 -97 -452 c-54 -249 -97 -471 -97 -494
0 -48 31 -100 75 -125 17 -9 229 -81 471 -159 l442 -143 17 -56 17 -57 -527
-1460 c-468 -1298 -526 -1464 -522 -1505 7 -85 70 -139 160 -139 50 0 25 -14
757 434 262 160 387 232 391 223 4 -6 96 -275 205 -596 109 -321 207 -598 219
-615 12 -18 40 -39 68 -50 42 -18 53 -19 95 -8 26 7 59 25 75 40 22 22 115
270 476 1267 246 682 450 1246 452 1252 2 8 39 -19 89 -64 108 -96 135 -113
187 -113 63 0 84 12 187 105 l94 85 10 -28 c207 -582 890 -2456 904 -2479 46
-76 164 -92 233 -32 40 36 23 -11 260 689 103 305 189 556 190 558 2 2 247
-147 546 -329 519 -318 546 -333 599 -337 94 -6 160 56 160 150 0 37 -111 355
-525 1499 l-526 1452 19 56 19 56 453 147 c311 102 461 155 478 170 35 34 52
72 52 120 0 24 -43 244 -96 490 l-96 447 312 343 c171 189 319 357 328 373 24
46 19 118 -11 163 -14 20 -163 187 -330 371 l-303 333 99 457 c67 312 97 469
94 498 -6 53 -40 101 -88 122 -21 10 -231 80 -468 156 l-429 140 -138 430
c-75 236 -146 448 -158 470 -28 52 -78 85 -130 85 -23 0 -241 -43 -485 -95
-244 -53 -450 -95 -456 -93 -7 2 -166 143 -354 313 -188 171 -359 318 -379
327 -50 23 -81 22 -130 -4z m391 -650 c315 -286 367 -328 414 -328 13 0 215
41 449 91 235 50 430 87 434 82 4 -4 66 -192 139 -417 72 -225 138 -420 146
-433 8 -12 26 -30 40 -39 13 -9 209 -76 435 -149 226 -73 414 -135 417 -139 4
-4 -35 -202 -86 -440 -83 -388 -91 -438 -82 -474 9 -32 72 -107 311 -371 l300
-331 -300 -332 c-234 -259 -303 -341 -311 -371 -9 -35 1 -92 82 -473 58 -270
89 -437 83 -443 -5 -5 -193 -68 -419 -141 -225 -72 -421 -140 -436 -151 -15
-10 -33 -33 -42 -51 -8 -18 -73 -211 -142 -428 -70 -217 -131 -399 -136 -404
-5 -6 -178 27 -442 83 -382 82 -439 91 -473 82 -30 -8 -112 -77 -371 -311
l-333 -301 -326 297 c-310 281 -365 324 -415 324 -11 0 -212 -41 -446 -91
-234 -50 -429 -87 -433 -82 -5 4 -67 192 -140 417 -73 225 -139 420 -147 432
-30 47 -37 49 -692 257 -106 34 -196 68 -198 74 -3 7 36 206 87 442 80 376 90
433 81 467 -8 30 -78 113 -311 372 l-300 332 300 331 c230 254 302 340 312
370 11 37 4 76 -81 474 -51 239 -90 438 -87 443 3 6 18 13 33 17 16 3 165 51
333 105 168 54 342 111 387 125 89 28 126 52 147 93 8 15 71 207 141 427 70
220 131 404 136 409 6 6 173 -25 443 -83 382 -81 438 -91 473 -82 30 8 110 75
368 310 182 165 331 300 333 300 1 1 148 -131 325 -291z m2383 -7785 c-2 -2
-196 114 -432 258 -384 235 -434 263 -479 266 -59 5 -109 -18 -140 -64 -11
-16 -92 -242 -180 -501 -88 -259 -163 -468 -166 -464 -4 4 -180 489 -393 1077
l-387 1070 78 74 c43 40 102 94 131 119 l53 45 452 -97 c249 -53 467 -96 485
-96 45 0 98 26 121 59 10 14 40 91 66 170 l48 144 373 -1028 c206 -566 372
-1030 370 -1032z m-4627 1912 c27 -86 52 -146 69 -166 29 -35 77 -59 119 -59
14 0 226 43 470 95 244 52 450 95 459 95 23 0 259 -219 258 -240 0 -21 -766
-2151 -771 -2147 -1 2 -74 213 -162 470 -88 256 -167 478 -176 494 -9 15 -28
37 -43 47 -32 24 -120 33 -153 16 -13 -7 -212 -127 -442 -268 -230 -140 -419
-253 -421 -251 -4 6 738 2049 744 2049 4 0 26 -61 49 -135z"/>
<path d="M4885 8629 c-538 -51 -1071 -304 -1460 -694 -938 -939 -938 -2454 0
-3391 935 -932 2446 -937 3378 -11 823 818 951 2071 312 3038 -486 733 -1345
1141 -2230 1058z m436 -319 c472 -48 903 -249 1243 -579 355 -346 564 -769
621 -1259 62 -532 -88 -1067 -424 -1507 -64 -84 -242 -266 -331 -338 -748
-604 -1794 -622 -2564 -43 -103 77 -280 248 -359 346 -621 770 -621 1850 0
2620 80 99 263 276 364 350 425 315 940 461 1450 410z"/>
<path d="M6165 7511 c-95 -25 -89 -18 -1137 -1061 l-388 -385 -227 227 c-264
263 -277 271 -413 272 -126 0 -152 -16 -352 -212 -203 -200 -223 -234 -216
-366 3 -65 10 -92 32 -133 41 -75 970 -989 1041 -1023 41 -21 65 -25 136 -25
76 0 92 3 142 30 79 42 1948 1887 1993 1967 26 48 29 62 29 148 0 131 -16 158
-215 354 -123 122 -170 162 -215 182 -61 28 -156 39 -210 25z m204 -435 l124
-124 -554 -548 c-305 -301 -722 -715 -927 -918 l-372 -371 -446 445 -445 445
128 122 128 122 275 -273 c237 -236 281 -276 318 -285 94 -26 59 -55 806 684
375 370 715 707 756 749 41 42 77 76 80 76 3 0 61 -56 129 -124z"/>
</g>
</svg>
